<?xml version="1.0" standalone="no"?>
<!DOCTYPE svg PUBLIC "-//W3C//DTD SVG 20010904//EN"
 "http://www.w3.org/TR/2001/REC-SVG-20010904/DTD/svg10.dtd">
<svg version="1.0" xmlns="http://www.w3.org/2000/svg"
 width="400.000000pt" height="400.000000pt" viewBox="0 0 400.000000 400.000000"
 preserveAspectRatio="xMidYMid meet">

<g transform="translate(0.000000,400.000000) scale(0.100000,-0.100000)"
fill="#000000" stroke="none">
<path d="M0 3048 c0 -524 4 -947 9 -940 7 11 10 10 15 -3 10 -28 7 -55 -9 -61
-13 -5 -15 -129 -15 -1025 l0 -1019 2000 0 2000 0 0 650 0 650 -24 0 c-13 0
-29 -7 -36 -15 -9 -11 -16 -12 -25 -5 -6 5 -15 7 -18 3 -18 -17 -4 7 18 33 16
19 25 24 25 14 0 -12 2 -12 9 -1 5 8 16 11 30 6 20 -6 21 -3 21 54 0 67 -6 91
-25 91 -19 0 -24 34 -8 56 12 16 15 17 23 4 5 -8 9 44 9 139 1 88 -3 150 -8
147 -5 -3 -11 1 -15 9 -3 9 0 15 10 15 8 0 12 5 9 10 -11 18 -34 -8 -28 -30 4
-13 0 -20 -10 -20 -8 0 -17 -7 -21 -15 -4 -12 -2 -13 13 -5 15 8 20 6 24 -10
5 -20 -7 -28 -17 -11 -3 5 -15 7 -26 4 -11 -3 -20 0 -20 6 0 6 5 11 10 11 6 0
10 7 10 15 0 13 -4 14 -20 5 -26 -14 -28 -63 -2 -53 15 6 15 5 2 -11 -13 -17
-15 -17 -32 4 -10 12 -18 17 -18 12 0 -6 5 -14 11 -18 8 -4 7 -9 -2 -15 -10
-6 -11 -9 -1 -9 6 0 12 -10 12 -22 -1 -22 -1 -22 -14 -5 -8 10 -18 16 -22 15
-9 -3 -14 5 -14 23 0 5 4 8 9 5 4 -3 7 6 5 19 -1 14 3 25 9 25 16 1 67 46 67
60 0 6 4 9 9 6 5 -4 4 5 -2 19 -16 34 -28 31 -56 -14 -13 -22 -29 -37 -36 -35
-9 4 -11 -3 -8 -20 5 -24 4 -25 -31 -14 -20 6 -36 17 -36 25 0 7 -7 13 -16 13
-8 0 -13 -4 -9 -9 11 -19 -57 8 -76 30 -24 27 -11 56 28 62 l28 4 -28 2 -28 1
30 37 c35 42 41 44 199 43 70 -1 92 2 86 11 -5 9 -2 10 9 6 15 -6 17 5 17 106
l0 112 -67 3 -68 2 45 -41 45 -42 -40 6 c-24 4 -34 3 -26 -2 7 -5 11 -13 7
-19 -3 -6 3 -13 14 -17 11 -4 17 -11 14 -17 -4 -6 3 -5 16 2 19 10 21 9 18 -7
-3 -15 -12 -17 -53 -15 -48 3 -49 2 -30 -13 l20 -17 -20 7 c-11 4 -33 11 -50
15 -16 4 -39 11 -50 15 -16 5 -15 3 5 -14 l25 -20 -30 4 c-16 2 -35 4 -42 4
-7 1 -9 12 -6 33 4 18 6 41 7 51 0 10 20 37 44 59 l45 41 -24 19 c-22 16 -22
19 -7 28 12 7 15 19 12 43 -6 44 16 73 45 57 12 -6 21 -20 21 -30 0 -11 4 -20
8 -20 5 0 17 -16 28 -35 19 -36 28 -42 39 -25 3 6 17 10 31 10 l24 0 0 130 c0
109 -2 130 -15 130 -8 0 -15 4 -15 9 0 4 -13 22 -30 39 -29 31 -40 62 -21 62
5 0 12 -14 16 -30 5 -25 11 -30 26 -25 15 5 17 3 12 -11 -4 -12 -3 -15 6 -10
8 5 10 18 6 33 -4 16 -2 22 5 18 5 -3 10 -1 10 4 0 6 -7 11 -16 11 -8 0 -12 5
-9 10 4 6 11 8 16 5 5 -4 9 1 9 11 0 13 -3 14 -15 4 -12 -10 -18 -10 -30 0
-23 19 -18 30 15 30 28 0 30 2 30 40 0 35 -3 40 -22 40 -26 0 -64 20 -39 20
11 0 11 3 0 17 -8 10 -9 14 -2 10 6 -4 14 -3 17 2 3 5 -3 11 -13 14 -13 3 -22
17 -26 41 -4 20 -11 33 -16 30 -5 -3 -6 1 -4 9 6 15 -23 92 -32 84 -3 -3 -11
-1 -17 5 -8 8 -11 32 -8 70 7 95 -14 105 -133 62 -113 -40 -166 -54 -235 -60
-85 -7 -119 -18 -153 -49 -24 -23 -32 -24 -28 -2 2 11 -27 8 -35 -4 -5 -8 -10
-7 -16 4 -5 10 -15 14 -26 10 -15 -6 -15 -5 -3 10 9 12 10 17 2 17 -7 0 -10 3
-8 8 9 15 -13 54 -28 48 -8 -3 -17 -1 -21 5 -4 7 -10 6 -19 -1 -9 -8 -14 -6
-19 5 -3 8 -11 15 -18 14 -10 0 -10 -2 0 -6 18 -7 14 -19 -7 -19 -16 0 -17 4
-9 25 9 25 9 25 -11 6 -19 -16 -21 -17 -21 -1 0 9 7 33 15 52 17 42 10 65 -12
35 -15 -22 -43 -29 -43 -11 0 6 -5 10 -11 10 -5 0 -7 -6 -3 -12 4 -8 2 -8 -7
1 -10 9 -11 15 -3 18 18 6 -6 74 -34 100 -25 22 -32 61 -18 98 6 14 5 16 -2 7
-14 -20 -24 28 -16 78 6 39 6 40 -22 40 -22 0 -25 3 -16 12 15 15 16 48 2 48
-11 0 -30 -41 -24 -51 6 -11 -41 -4 -54 9 -16 15 -32 16 -32 2 0 -5 -5 -10
-12 -10 -6 0 -8 3 -5 6 3 4 2 15 -4 26 -9 17 -8 18 9 9 16 -8 21 -7 26 4 3 8
11 15 17 15 8 0 8 -4 -1 -15 -7 -9 -10 -18 -6 -22 3 -3 6 -1 6 6 0 7 5 9 10 6
6 -3 13 0 16 9 3 9 12 12 22 8 14 -5 15 -4 2 10 -8 8 -21 13 -28 11 -8 -4 -10
0 -6 11 7 18 -8 21 -36 6 -11 -6 -17 -16 -14 -25 5 -11 2 -13 -10 -9 -9 3 -13
10 -10 15 3 5 0 9 -6 9 -6 0 -8 -11 -6 -24 5 -26 -13 -40 -39 -30 -19 8 -19
24 0 38 8 6 16 23 19 37 4 23 1 25 -28 23 -17 -1 -35 -2 -40 -3 -17 -2 10 -22
31 -24 12 0 19 -6 16 -13 -3 -10 -13 -9 -39 4 -30 15 -34 21 -32 48 3 23 0 30
-9 27 -7 -3 -13 -11 -13 -18 0 -7 -7 -15 -15 -19 -10 -3 -15 1 -15 11 0 14 -2
14 -14 -3 -13 -17 -13 -20 2 -26 12 -5 9 -7 -11 -7 -17 -1 -40 -12 -58 -30
-16 -16 -31 -25 -35 -20 -3 5 -9 7 -14 4 -4 -3 -10 4 -13 14 -3 15 -1 18 11
14 10 -4 13 -2 8 5 -4 7 -14 12 -22 12 -8 0 -14 4 -14 9 0 6 -8 9 -19 8 -12
-1 -17 -7 -13 -19 2 -10 -1 -19 -7 -19 -6 -1 -16 -2 -21 -3 -6 0 -14 -7 -18
-13 -5 -7 -22 -16 -40 -19 -32 -7 -38 1 -33 42 1 6 -6 18 -16 25 -11 9 -14 10
-9 2 13 -23 -69 -20 -94 2 -22 20 -27 19 -33 -7 -5 -17 -9 -19 -20 -10 -10 9
-16 9 -25 0 -16 -16 -16 42 0 77 9 20 9 28 0 34 -6 4 -15 23 -19 41 -6 32 -5
34 10 21 15 -12 17 -11 17 3 0 9 -7 16 -15 16 -9 0 -19 8 -22 18 -4 9 -11 20
-16 23 -5 4 5 20 22 36 36 35 32 43 -21 43 -42 0 -42 1 -29 -32 5 -14 4 -33
-2 -48 -17 -42 -16 -47 9 -59 21 -9 23 -14 14 -30 -14 -27 -13 -34 5 -28 8 4
17 2 20 -3 4 -6 -7 -10 -22 -10 -16 0 -34 -5 -40 -11 -8 -8 -20 -7 -45 6 -18
10 -44 24 -58 31 -14 7 -25 18 -25 25 0 7 -14 13 -32 14 -33 1 -47 9 -49 26
-1 5 -2 13 -3 19 0 5 -7 7 -15 4 -8 -3 -17 -1 -20 5 -4 6 -13 8 -21 5 -8 -4
-12 -10 -9 -15 3 -5 10 -7 15 -4 5 4 9 1 9 -5 0 -7 7 -10 15 -6 8 3 15 1 15
-4 0 -6 -7 -10 -15 -10 -7 0 -18 -7 -23 -16 -6 -11 -17 -15 -30 -12 -11 3 -26
2 -33 -3 -11 -7 -9 -9 6 -9 18 -1 17 -2 -4 -11 -30 -12 -34 -7 -35 36 -1 29
-5 35 -23 35 -14 0 -23 6 -23 16 0 10 6 14 14 11 11 -4 13 -1 9 11 -3 9 -3 14
2 10 7 -7 55 39 55 52 0 3 -27 7 -60 8 -46 3 -60 0 -60 -11 0 -7 -7 -14 -15
-14 -9 0 -14 6 -11 14 3 8 -2 13 -14 13 -15 0 -20 -7 -21 -27 l-1 -28 -7 25
-7 25 -727 3 -727 2 0 -952z m1445 932 c-3 -5 -12 -10 -18 -10 -7 0 -6 4 3 10
19 12 23 12 15 0z m-752 -72 c3 -47 1 -56 -13 -55 -13 1 -16 10 -14 46 3 47
11 77 19 69 3 -2 6 -30 8 -60z m854 16 c-3 -3 -12 -4 -19 -1 -8 3 -5 6 6 6 11
1 17 -2 13 -5z m-67 -14 c0 -5 -5 -10 -11 -10 -5 0 -7 5 -4 10 3 6 8 10 11 10
2 0 4 -4 4 -10z m-910 -22 c-1 -13 -7 -34 -16 -48 -14 -25 -14 -25 -12 15 2
45 5 55 19 55 5 0 9 -10 9 -22z m787 -20 c-3 -8 -6 -5 -6 6 -1 11 2 17 5 13 3
-3 4 -12 1 -19z m19 -56 c-11 -10 -15 4 -8 28 l7 25 3 -23 c2 -13 1 -26 -2
-30z m230 -9 c-10 -10 -19 5 -10 18 6 11 8 11 12 0 2 -7 1 -15 -2 -18z m-292
1 c3 -8 2 -12 -4 -9 -6 3 -10 10 -10 16 0 14 7 11 14 -7z m126 -35 c0 -5 -4
-9 -8 -9 -5 0 -9 7 -9 15 0 8 4 12 9 9 4 -3 8 -9 8 -15z m310 13 c0 -11 -37
-32 -44 -25 -3 3 2 12 12 19 19 15 32 18 32 6z m40 4 c0 -2 -7 -7 -16 -10 -8
-3 -12 -2 -9 4 6 10 25 14 25 6z m155 -34 c-3 -3 -11 0 -18 7 -9 10 -8 11 6 5
10 -3 15 -9 12 -12z m-1520 -12 c3 -5 1 -10 -4 -10 -6 0 -11 5 -11 10 0 6 2
10 4 10 3 0 8 -4 11 -10z m65 -35 c0 -5 -5 -3 -10 5 -5 8 -10 20 -10 25 0 6 5
3 10 -5 5 -8 10 -19 10 -25z m2110 -25 c0 -5 -4 -10 -10 -10 -5 0 -10 5 -10
10 0 6 5 10 10 10 6 0 10 -4 10 -10z m-33 -6 c-3 -3 -12 -4 -19 -1 -8 3 -5 6
6 6 11 1 17 -2 13 -5z m-2213 -45 c4 -19 1 -29 -10 -33 -8 -3 -12 -2 -9 4 3 6
2 10 -3 10 -5 0 -12 9 -15 20 -6 22 8 28 16 8 3 -7 6 -4 6 6 1 24 6 19 15 -15z
m1833 3 c17 -11 29 -72 14 -72 -6 0 -11 10 -11 22 0 12 -7 30 -17 40 -16 18
-8 24 14 10z m37 -28 c3 -8 2 -12 -4 -9 -6 3 -10 10 -10 16 0 14 7 11 14 -7z
m31 -2 c-3 -3 -11 0 -18 7 -9 10 -8 11 6 5 10 -3 15 -9 12 -12z m46 -25 c-15
-30 -55 -49 -44 -20 3 7 0 13 -6 13 -20 0 24 38 45 39 21 1 21 0 5 -32z m424
-7 c3 -5 1 -10 -4 -10 -6 0 -11 5 -11 10 0 6 2 10 4 10 3 0 8 -4 11 -10z
m-235 -56 c0 -3 -7 -12 -15 -20 -16 -17 -18 -14 -9 10 6 15 24 23 24 10z m546
-380 c-4 -9 -9 -15 -11 -12 -3 3 -3 13 1 22 4 9 9 15 11 12 3 -3 3 -13 -1 -22z
m-1048 -249 c-5 -5 -7 45 -6 110 l2 120 6 -110 c3 -60 2 -114 -2 -120z m227
203 c328 -50 678 -275 890 -573 61 -85 165 -280 180 -335 3 -14 -17 22 -45 80
-80 165 -170 291 -300 421 -215 216 -456 345 -739 393 -52 9 -100 16 -108 16
-20 0 41 -94 124 -189 40 -46 73 -88 73 -93 0 -34 -166 138 -227 236 l-43 67
63 -6 c34 -3 94 -11 132 -17z m800 12 c3 -5 -1 -10 -9 -10 -9 0 -16 5 -16 10
0 6 4 10 9 10 6 0 13 -4 16 -10z m-1165 -11 c-183 -31 -317 -72 -448 -138 -90
-45 -231 -142 -302 -206 l-65 -59 55 57 c124 129 371 271 560 321 108 28 135
33 205 33 l50 1 -55 -9z m327 -35 c-3 -3 -12 -4 -19 -1 -8 3 -5 6 6 6 11 1 17
-2 13 -5z m60 -10 c-3 -3 -12 -4 -19 -1 -8 3 -5 6 6 6 11 1 17 -2 13 -5z m50
-10 c-3 -3 -12 -4 -19 -1 -8 3 -5 6 6 6 11 1 17 -2 13 -5z m853 -4 c0 -5 -2
-10 -4 -10 -3 0 -8 5 -11 10 -3 6 -1 10 4 10 6 0 11 -4 11 -10z m-795 -10 c13
-5 14 -9 5 -9 -8 0 -24 4 -35 9 -13 5 -14 9 -5 9 8 0 24 -4 35 -9z m855 -10
c0 -5 -4 -10 -9 -10 -6 0 -13 5 -16 10 -3 6 1 10 9 10 9 0 16 -4 16 -10z
m-790 -10 c13 -9 13 -10 0 -10 -8 0 -22 5 -30 10 -13 9 -13 10 0 10 8 0 22 -5
30 -10z m135 -58 c153 -76 330 -210 415 -314 33 -39 24 -32 -35 28 -44 44
-116 107 -159 139 -72 53 -118 79 -286 167 -77 40 -21 23 65 -20z m825 6 c0
-19 -2 -20 -10 -8 -13 19 -13 30 0 30 6 0 10 -10 10 -22z m-775 -83 c14 -19
27 -49 30 -67 l5 -33 -11 35 c-6 19 -27 52 -47 73 -20 21 -29 35 -20 32 9 -4
29 -22 43 -40z m1306 28 c13 -16 12 -17 -3 -4 -10 7 -18 15 -18 17 0 8 8 3 21
-13z m-44 -15 c-3 -8 -6 -5 -6 6 -1 11 2 17 5 13 3 -3 4 -12 1 -19z m33 -33
c0 -14 -4 -25 -9 -25 -12 0 -19 21 -13 38 8 21 22 13 22 -13z m-1793 -31 c33
-36 40 -63 16 -71 -7 -3 -9 3 -6 16 7 29 -22 64 -65 78 -35 11 -36 12 -8 12
21 1 38 -9 63 -35z m-445 -64 c-8 -11 -42 44 -42 68 0 23 3 20 23 -18 12 -25
21 -47 19 -50z m692 19 c-28 -31 -32 -22 -10 24 18 37 21 40 24 19 2 -13 -4
-32 -14 -43z m-332 -58 c12 -38 31 -73 47 -87 l26 -23 22 27 c27 33 28 40 6
65 -18 19 -18 20 15 3 17 -9 32 -19 32 -21 0 -18 -58 -88 -92 -111 -48 -33
-78 -88 -79 -146 -2 -42 -2 -41 -9 12 -7 59 -19 89 -44 110 -19 15 -21 32 -3
29 29 -4 37 3 44 39 l7 37 6 -34 c4 -27 11 -36 32 -42 18 -5 31 -3 38 7 17 20
3 36 -20 24 -24 -13 -30 -13 -30 0 0 6 10 10 23 10 20 0 19 2 -9 19 -18 11
-35 25 -39 31 -6 9 -10 9 -17 -1 -7 -10 -8 -9 -4 6 2 11 8 47 12 80 3 33 9 53
11 45 2 -8 13 -44 25 -79z m1792 67 c-8 -28 -3 -24 -36 -32 -34 -8 -35 0 -6
31 28 30 52 31 42 1z m-84 -28 c-12 -22 2 -85 20 -92 14 -5 15 -151 2 -156 -8
-2 -12 9 -12 32 0 19 -5 38 -10 41 -6 4 -11 21 -11 38 0 75 -2 87 -10 87 -14
0 -11 18 7 45 20 30 29 33 14 5z m-1639 -27 c13 -16 12 -17 -3 -4 -17 13 -22
21 -14 21 2 0 10 -8 17 -17z m1844 -23 c-3 -5 -10 -10 -16 -10 -5 0 -9 5 -9
10 0 6 7 10 16 10 8 0 12 -4 9 -10z m-2049 -91 c16 -18 18 -29 5 -29 -14 0
-62 80 -55 91 3 6 13 -2 21 -18 8 -15 21 -35 29 -44z m338 15 c14 -15 26 -30
26 -34 0 -12 37 -50 43 -44 3 3 26 -3 50 -14 l45 -20 41 30 c23 16 41 26 41
21 -1 -10 -85 -74 -119 -90 -14 -7 -24 -13 -21 -13 29 -8 58 -5 72 7 9 8 27
13 40 10 21 -4 21 -4 -4 -6 -36 -1 -49 -28 -51 -101 -1 -32 -6 -56 -11 -53 -5
3 -6 32 -2 64 6 63 5 65 -26 48 -21 -11 -21 -12 -3 -25 18 -14 18 -14 -1 -14
-28 0 -44 19 -44 53 0 20 4 26 13 21 8 -5 7 -2 -2 10 -17 21 -31 6 -31 -35 0
-38 -45 -120 -89 -163 -44 -43 -48 -32 -12 29 72 121 80 262 18 314 -18 14
-22 31 -8 31 4 0 20 -12 35 -26z m1571 16 c9 -14 -4 -52 -16 -45 -12 8 -12 55
0 55 6 0 13 -5 16 -10z m-2036 -42 c-13 -25 -18 -159 -6 -203 4 -16 4 -25 0
-19 -4 6 -16 14 -27 17 -16 6 -18 16 -14 70 4 56 38 157 53 157 3 0 1 -10 -6
-22z m1950 -12 c14 -15 19 -26 12 -31 -6 -3 -11 0 -11 8 0 8 -7 18 -16 21 -8
3 -13 2 -10 -3 3 -5 -1 -14 -9 -21 -13 -10 -15 -9 -15 12 0 44 16 49 49 14z
m-885 -91 c6 -39 70 -146 100 -167 7 -5 4 -8 -6 -8 -27 0 -90 96 -109 167 -10
36 -24 73 -31 82 -7 9 -1 6 14 -7 17 -16 28 -38 32 -67z m-684 54 c0 -5 -7 -9
-15 -9 -9 0 -12 6 -9 15 6 15 24 11 24 -6z m1660 11 c0 -5 -5 -10 -11 -10 -5
0 -7 5 -4 10 3 6 8 10 11 10 2 0 4 -4 4 -10z m-1020 -21 c21 -39 8 -49 -30
-23 l-34 24 29 0 c23 0 27 3 15 10 -9 6 -10 10 -3 10 7 0 17 -9 23 -21z m1019
-31 c0 -28 -2 -30 -9 -13 -12 28 -12 45 0 45 6 0 10 -15 9 -32z m-862 -60 c22
-24 50 -61 62 -83 34 -64 24 -64 -14 1 -19 32 -61 83 -93 113 -31 29 -43 44
-27 33 17 -11 49 -40 72 -64z m783 67 c0 -8 -4 -15 -8 -15 -5 0 -9 7 -9 15 0
8 4 15 9 15 4 0 8 -7 8 -15z m183 -9 c3 -8 0 -17 -7 -19 -10 -4 -12 1 -9 14 6
23 9 24 16 5z m-1823 0 c0 -2 -8 -10 -17 -17 -16 -13 -17 -12 -4 4 13 16 21
21 21 13z m80 -21 c-7 -8 -19 -15 -27 -15 -10 0 -8 6 8 19 27 22 38 19 19 -4z
m568 -9 c29 -15 120 -107 164 -166 24 -32 72 -140 65 -147 -2 -1 -21 30 -42
70 -52 97 -76 128 -157 197 -71 62 -77 70 -30 46z m989 -18 c-3 -7 -5 -2 -5
12 0 14 2 19 5 13 2 -7 2 -19 0 -25z m-1218 -22 c-3 -3 -11 5 -18 17 -13 21
-12 21 5 5 10 -10 16 -20 13 -22z m1271 12 c0 -18 -2 -20 -9 -8 -6 8 -7 18 -5
22 9 14 14 9 14 -14z m50 8 c0 -3 -4 -8 -10 -11 -5 -3 -10 -1 -10 4 0 6 5 11
10 11 6 0 10 -2 10 -4z m-196 -61 c-4 -8 -8 -15 -10 -15 -2 0 -4 7 -4 15 0 8
4 15 10 15 5 0 7 -7 4 -15z m128 -17 c-9 -9 -12 -7 -12 12 0 19 3 21 12 12 9
-9 9 -15 0 -24z m-1437 -50 c0 -36 3 -43 25 -48 17 -4 21 -8 12 -14 -17 -10
-58 17 -67 43 -6 20 9 61 23 61 4 0 7 -19 7 -42z m-312 11 c5 21 37 30 37 11
0 -5 -4 -9 -9 -7 -9 2 -11 -2 -11 -29 0 -8 5 -12 10 -9 13 8 13 2 -2 -30 -6
-14 -16 -25 -22 -25 -6 0 4 -12 22 -26 43 -34 41 -43 -7 -31 -31 8 -38 15 -35
30 2 11 -3 35 -11 55 -9 19 -13 37 -10 40 3 3 5 0 5 -6 0 -7 4 -12 10 -12 6 0
6 9 0 26 -14 36 -12 43 4 15 13 -23 13 -23 19 -2z m351 -31 c-3 -5 -12 -4 -20
3 -19 16 -18 18 6 12 11 -3 17 -9 14 -15z m1408 -16 c-7 -2 -10 -7 -8 -11 3
-4 -4 -7 -14 -7 -18 0 -18 2 -3 18 8 10 20 15 26 11 8 -5 7 -8 -1 -11z m-1227
-49 c-141 -10 -253 -38 -317 -80 -21 -14 -40 -24 -43 -21 -2 2 21 19 51 38 79
48 193 76 280 70 48 -3 57 -5 29 -7z m-814 -38 c19 -8 48 -24 64 -35 36 -26
29 -24 -55 18 -65 32 -72 45 -9 17z m676 -11 c-3 -3 -12 -4 -19 -1 -8 3 -5 6
6 6 11 1 17 -2 13 -5z m-47 -11 c-8 -3 -24 -10 -35 -15 -20 -9 -20 -9 -1 6 11
9 27 16 35 15 14 0 14 -1 1 -6z m-68 -25 c-3 -12 -7 -17 -10 -10 -2 7 -9 9
-15 5 -7 -4 -6 1 2 10 19 24 30 21 23 -5z m206 15 c-10 -2 -26 -2 -35 0 -10 3
-2 5 17 5 19 0 27 -2 18 -5z m-75 -10 c-7 -2 -21 -2 -30 0 -10 3 -4 5 12 5 17
0 24 -2 18 -5z m194 1 c-3 -3 -12 -4 -19 -1 -8 3 -5 6 6 6 11 1 17 -2 13 -5z
m-257 -14 c-8 -5 -19 -10 -25 -10 -5 0 -3 5 5 10 8 5 20 10 25 10 6 0 3 -5 -5
-10z m-443 -16 c-3 -3 -12 -4 -19 -1 -8 3 -5 6 6 6 11 1 17 -2 13 -5z m226 -1
c-13 -2 -33 -2 -45 0 -13 2 -3 4 22 4 25 0 35 -2 23 -4z m1579 -25 c-8 -8 -9
-4 -5 13 4 13 8 18 11 10 2 -7 -1 -18 -6 -23z m253 22 c-3 -5 -12 -7 -20 -3
-21 7 -19 13 6 13 11 0 18 -4 14 -10z m-1556 -28 c-78 -21 -115 -43 -137 -84
-30 -53 -53 -78 -93 -98 -21 -11 -39 -18 -39 -15 0 2 18 14 41 25 22 12 48 35
57 52 39 72 88 114 147 129 66 16 88 7 24 -9z m-698 -49 c13 -16 12 -17 -3 -4
-10 7 -18 15 -18 17 0 8 8 3 21 -13z m324 -12 c-15 -13 -65 -23 -65 -12 0 5
15 12 33 14 17 2 34 5 37 5 2 1 0 -2 -5 -7z m1730 -1 c3 -5 -1 -10 -9 -10 -9
0 -16 5 -16 10 0 6 4 10 9 10 6 0 13 -4 16 -10z m-1221 -31 c-16 -17 -65 -53
-109 -80 -44 -28 -115 -75 -158 -105 -90 -62 -116 -70 -66 -18 83 87 232 193
308 220 54 20 58 17 25 -17z m-2494 11 c0 -5 -2 -10 -4 -10 -3 0 -8 5 -11 10
-3 6 -1 10 4 10 6 0 11 -4 11 -10z m10 -30 c0 -5 -4 -10 -9 -10 -6 0 -13 5
-16 10 -3 6 1 10 9 10 9 0 16 -4 16 -10z m20 -39 c13 -25 13 -41 0 -41 -5 0
-10 9 -10 21 0 11 -4 17 -10 14 -5 -3 -10 1 -10 9 0 22 17 20 30 -3z m1695 -1
c10 -11 16 -20 13 -20 -3 0 -13 9 -23 20 -10 11 -16 20 -13 20 3 0 13 -9 23
-20z m-122 -32 c26 -18 72 -55 105 -83 32 -27 73 -63 92 -78 l35 -28 -43 21
c-55 27 -132 76 -203 132 -31 23 -65 48 -75 55 -17 11 -16 12 12 12 20 1 48
-11 77 -31z m377 10 c25 -28 26 -47 1 -24 -18 16 -19 16 -17 -1 0 -10 -6 -18
-14 -18 -9 0 -16 10 -16 25 -3 46 14 52 46 18z m-200 -8 c8 -5 11 -10 5 -10
-5 0 -17 5 -25 10 -8 5 -10 10 -5 10 6 0 17 -5 25 -10z m1276 -6 c33 -16 64
-48 64 -67 0 -5 -14 3 -31 17 -17 14 -51 31 -75 37 -24 6 -41 15 -38 20 8 14
42 11 80 -7z m-521 -31 c-8 -14 -17 -43 -20 -65 -4 -23 -11 -36 -17 -31 -7 3
-8 1 -4 -5 4 -7 -6 -37 -23 -67 -19 -34 -26 -55 -18 -56 23 -1 -48 -27 -96
-34 -30 -5 -47 -4 -47 3 0 6 8 12 18 15 10 2 0 7 -23 12 -32 7 -47 4 -80 -14
l-40 -22 33 34 34 35 -44 7 c-37 7 -41 9 -24 19 10 6 36 28 57 49 21 21 55 45
76 53 21 9 65 30 98 46 59 30 99 45 122 47 9 1 8 -6 -2 -26z m-1095 -19 c25
-14 73 -37 106 -51 41 -16 76 -39 103 -68 l42 -44 -27 -7 -27 -7 39 -34 39
-33 -38 21 c-35 20 -74 25 -137 18 -49 -6 -67 3 -104 51 -21 27 -40 64 -43 82
-2 18 -9 37 -14 43 -13 14 -11 55 4 55 6 0 32 -12 57 -26z m-475 -52 c-3 -3
-11 0 -18 7 -9 10 -8 11 6 5 10 -3 15 -9 12 -12z m1980 8 c-4 -6 -1 -18 7 -27
9 -13 6 -12 -14 2 -22 17 -24 21 -10 27 24 9 24 9 17 -2z m1002 -102 c-3 -7
-5 -2 -5 12 0 14 2 19 5 13 2 -7 2 -19 0 -25z m-1983 -17 c4 -5 -3 -7 -14 -4
-23 6 -26 13 -6 13 8 0 17 -4 20 -9z m1811 -22 c-5 -16 -4 -20 6 -15 8 4 5 0
-5 -8 -11 -9 -23 -16 -28 -16 -16 0 -7 -19 12 -25 11 -3 20 -15 20 -25 0 -10
7 -26 16 -34 8 -9 10 -16 4 -16 -6 0 -13 7 -17 16 -3 8 -12 13 -20 10 -8 -3
-11 -1 -8 4 3 6 -1 10 -10 10 -12 0 -15 -6 -10 -21 5 -14 2 -25 -6 -30 -21
-13 -29 -11 -29 7 0 8 -4 12 -10 9 -5 -3 -10 -1 -10 5 0 18 28 80 37 80 4 0
19 16 32 35 27 40 35 44 26 14z m119 6 c18 -14 18 -17 0 -14 -4 0 -10 -4 -13
-10 -4 -6 -12 -7 -21 -1 -12 8 -12 10 -1 10 11 0 11 3 1 15 -17 20 7 20 34 0z
m-1259 -21 c-49 -42 -149 -85 -221 -95 -92 -13 -150 -53 -216 -149 -13 -19
-12 -13 4 25 30 71 74 133 108 150 20 10 59 16 112 16 86 1 161 22 208 59 36
28 40 24 5 -6z m215 -41 c-34 -130 -55 -162 -144 -225 -86 -60 -126 -98 -126
-117 0 -10 -11 -28 -25 -41 -37 -35 -30 -9 13 48 40 53 69 80 144 131 67 45
95 87 117 173 17 71 27 98 36 98 1 0 -5 -30 -15 -67z m1082 -31 c-5 -15 -24
-11 -30 8 -3 7 0 10 7 6 7 -5 11 1 12 16 0 22 1 22 8 3 5 -11 6 -26 3 -33z
m-90 24 c11 7 28 -13 28 -32 0 -17 -40 -25 -63 -12 -11 5 -15 13 -10 17 5 3
13 15 17 26 5 13 10 16 13 7 3 -6 9 -9 15 -6z m-2393 -22 c10 -9 -55 -3 -69 6
-10 6 -2 7 25 3 22 -3 42 -7 44 -9z m2464 -47 c3 -7 -3 -18 -13 -25 -16 -10
-16 -8 -6 14 13 28 12 28 19 11z m-3686 -29 c-3 -8 -6 -5 -6 6 -1 11 2 17 5
13 3 -3 4 -12 1 -19z m953 -106 c0 -7 -56 36 -75 59 -11 12 1 5 28 -16 26 -22
47 -41 47 -43z m855 58 c-3 -5 -12 -10 -20 -10 -7 0 -27 -16 -43 -35 l-29 -35
-11 24 c-9 21 -9 24 4 19 8 -3 23 2 32 10 10 9 29 20 42 26 32 13 32 13 25 1z
m1771 1 c-4 -5 0 -12 6 -14 8 -3 6 -6 -4 -6 -18 -1 -24 10 -11 22 9 10 15 8 9
-2z m-2483 -179 c22 -29 37 -55 35 -58 -3 -3 -16 11 -28 30 -12 20 -49 61 -83
92 -61 56 -61 57 -13 23 27 -19 67 -58 89 -87z m2377 33 c11 -13 10 -14 -4 -9
-9 3 -16 10 -16 15 0 13 6 11 20 -6z m-977 -49 c-21 -30 -63 -44 -107 -37
l-31 5 35 6 c39 7 95 34 105 51 4 5 9 8 12 5 3 -2 -3 -16 -14 -30z m1011 19
c3 -8 1 -15 -4 -15 -6 0 -10 7 -10 15 0 8 2 15 4 15 2 0 6 -7 10 -15z m-2902
-9 c20 -15 14 -26 -13 -26 -28 0 -42 -37 -36 -92 7 -53 -4 -61 -29 -23 -32 49
-1 156 45 155 9 0 24 -7 33 -14z m2374 -19 c36 -33 36 -33 23 -76 -16 -52 -35
-62 -60 -30 -18 24 -19 24 -19 2 0 -12 -4 -25 -10 -28 -6 -4 -10 10 -10 34 0
58 -14 87 -47 96 -27 6 -27 7 -9 21 36 26 92 18 132 -19z m-1991 -15 c-10 -2
-27 6 -39 18 l-21 21 39 -18 c27 -13 34 -19 21 -21z m2475 34 c0 -3 -4 -8 -10
-11 -5 -3 -10 -1 -10 4 0 6 5 11 10 11 6 0 10 -2 10 -4z m-1730 -24 c0 -13
-12 -22 -22 -16 -10 6 -1 24 13 24 5 0 9 -4 9 -8z m1704 -8 c3 -8 2 -12 -4 -9
-6 3 -10 10 -10 16 0 14 7 11 14 -7z m-819 -4 c-3 -5 -12 -10 -18 -10 -7 0 -6
4 3 10 19 12 23 12 15 0z m945 -22 c0 -18 -2 -20 -9 -8 -6 8 -7 18 -5 22 9 14
14 9 14 -14z m70 -33 c0 -4 -9 4 -20 18 -11 14 -20 28 -20 32 0 4 9 -4 20 -18
11 -14 20 -28 20 -32z m-1080 -29 l-21 -21 18 32 c10 18 20 28 22 22 2 -6 -6
-21 -19 -33z m910 9 c-7 -8 -18 -15 -24 -15 -6 0 -3 5 6 11 11 6 15 16 11 27
-5 14 -3 15 7 5 11 -10 11 -15 0 -28z m47 -1 c-3 -3 -12 -4 -19 -1 -8 3 -5 6
6 6 11 1 17 -2 13 -5z m-27 -29 c7 -9 8 -15 2 -15 -5 0 -12 7 -16 15 -3 8 -4
15 -2 15 2 0 9 -7 16 -15z m130 -5 c0 -5 -2 -10 -4 -10 -3 0 -8 5 -11 10 -3 6
-1 10 4 10 6 0 11 -4 11 -10z m73 -15 c4 -8 1 -17 -6 -21 -7 -4 -9 -4 -5 1 4
4 3 14 -3 22 -7 8 -8 13 -1 13 5 0 12 -7 15 -15z m-1940 -60 c-17 -23 -33 -32
-33 -19 0 5 41 43 48 44 2 0 -5 -11 -15 -25z m608 -102 c16 -10 29 -22 29 -27
0 -6 -5 -5 -12 2 -19 19 -92 15 -121 -8 -27 -22 -42 -26 -32 -10 14 23 -35 8
-55 -17 -11 -16 -17 -19 -11 -8 34 71 138 106 202 68z m249 -26 c0 -18 -9 -43
-20 -57 l-20 -25 0 57 c0 36 4 58 13 61 20 7 27 -2 27 -36z m819 27 c-12 -15
-11 -16 9 -10 12 4 22 5 22 2 0 -10 -57 -35 -64 -29 -3 4 -6 1 -6 -5 0 -7 -4
-12 -10 -12 -5 0 -10 7 -10 15 0 8 6 15 13 15 8 0 22 9 32 20 22 24 33 27 14
4z m-2207 -15 c26 -14 35 -10 14 6 -11 8 -16 15 -10 15 15 -1 49 -33 69 -65
18 -30 18 -30 -9 2 -34 40 -65 36 -38 -5 15 -25 13 -24 -24 8 -23 19 -57 40
-75 47 l-34 12 45 -6 c25 -3 53 -10 62 -14z m2270 -25 c-12 -8 -27 -12 -32 -9
-17 10 -1 25 28 25 l26 0 -22 -16z m-62 -33 c0 -6 -4 -13 -10 -16 -5 -3 -10 1
-10 9 0 9 5 16 10 16 6 0 10 -4 10 -9z m-1004 -38 c-11 -11 -19 6 -11 24 8 17
8 17 12 0 3 -10 2 -21 -1 -24z m-1390 0 c-10 -10 -19 5 -10 18 6 11 8 11 12 0
2 -7 1 -15 -2 -18z m112 -35 c7 -57 -97 -125 -148 -98 -31 17 -24 21 31 19 46
-2 55 1 76 26 19 21 23 35 19 57 -4 21 -2 28 7 26 6 -3 13 -16 15 -30z m1273
-73 c59 0 59 0 38 -17 -12 -10 -30 -18 -41 -18 -29 0 -76 28 -89 53 l-12 22
23 -20 c17 -15 36 -20 81 -20z m579 3 c0 -9 3 -10 8 -2 4 6 15 11 26 11 16 0
15 -3 -5 -18 -13 -10 -34 -19 -46 -19 -27 0 -31 -20 -5 -21 121 -5 267 13 294
37 12 12 34 14 88 11 40 -3 75 -9 79 -15 3 -6 19 -14 34 -17 15 -4 27 -11 27
-16 0 -13 -53 -59 -70 -59 -12 0 -12 -2 -1 -9 9 -6 4 -10 -18 -13 -29 -4 -30
-4 -14 14 9 10 24 18 35 18 36 0 9 32 -37 45 -17 4 -24 10 -17 12 22 8 13 19
-15 17 -16 -1 -41 -2 -56 -3 -20 -1 -31 -7 -34 -21 -6 -24 -23 -27 -23 -4 0 9
-7 14 -17 12 -14 -3 -17 -12 -15 -37 l4 -34 -39 6 c-21 4 -62 7 -90 7 -37 0
-52 4 -50 13 3 16 -72 22 -87 6 -8 -9 -8 -10 2 -5 7 4 12 1 12 -7 0 -10 -7
-13 -20 -10 -11 3 -17 10 -14 15 4 6 -5 8 -24 3 -18 -3 -33 -2 -37 4 -6 11 7
15 34 11 9 -1 12 4 8 15 -5 10 1 19 16 26 18 8 16 9 -13 4 -28 -4 -32 -3 -17
6 10 6 35 9 54 7 31 -4 33 -3 17 9 -17 12 -16 13 4 13 12 0 22 -6 22 -12z m85
-6 c-3 -3 -11 0 -18 7 -9 10 -8 11 6 5 10 -3 15 -9 12 -12z m-205 -12 c0 -5
-7 -7 -15 -4 -8 4 -15 8 -15 10 0 2 7 4 15 4 8 0 15 -4 15 -10z m130 -85 c0
-12 -19 -12 -23 0 -4 9 -1 12 9 8 7 -3 14 -7 14 -8z m287 0 c0 -8 -4 -15 -8
-15 -4 0 -9 7 -13 15 -3 9 0 15 8 15 7 0 13 -7 13 -15z m-147 -34 c0 -5 -12
-7 -27 -5 -39 7 -42 14 -5 14 18 0 32 -4 32 -9z m77 3 c-3 -3 -12 -4 -19 -1
-8 3 -5 6 6 6 11 1 17 -2 13 -5z m-232 -145 c10 -16 -14 -18 -51 -5 l-39 13
43 0 c23 0 45 -3 47 -8z m-770 -159 c-3 -5 -11 -10 -16 -10 -6 0 -7 5 -4 10 3
6 11 10 16 10 6 0 7 -4 4 -10z m1229 -115 c4 -13 2 -14 -14 -5 -23 13 -26 20
-6 20 8 0 16 -7 20 -15z"/>
<path d="M2290 2511 c5 -11 15 -23 21 -27 6 -3 3 5 -6 20 -20 30 -30 35 -15 7z"/>
<path d="M1666 3985 c6 -16 85 -16 96 0 5 6 8 5 8 -3 0 -7 4 -10 10 -7 15 10
24 -46 10 -68 -10 -17 -10 -19 3 -14 9 3 18 1 20 -6 2 -7 16 13 31 45 14 31
31 58 38 61 7 3 -40 5 -104 6 -95 0 -116 -2 -112 -14z"/>
<path d="M2471 3948 c12 -29 27 -69 34 -88 11 -32 13 -33 19 -13 4 13 5 26 2
31 -3 4 -1 34 3 65 l8 57 -44 0 -43 0 21 -52z"/>
<path d="M2560 3984 c0 -8 5 -12 10 -9 6 3 10 10 10 16 0 5 -4 9 -10 9 -5 0
-10 -7 -10 -16z"/>
<path d="M2880 3988 c1 -29 27 -189 32 -194 3 -3 13 17 22 44 9 27 26 58 38
68 11 11 24 29 29 42 5 12 12 22 16 21 5 -1 19 2 31 6 40 13 6 22 -84 24 -63
1 -84 -1 -84 -11z"/>
<path d="M3735 3990 c-3 -5 0 -10 7 -10 8 0 28 -13 45 -29 26 -24 43 -29 105
-35 97 -9 108 -4 108 45 l0 39 -129 0 c-76 0 -132 -4 -136 -10z"/>
<path d="M1640 3929 c0 -5 5 -7 10 -4 6 3 10 8 10 11 0 2 -4 4 -10 4 -5 0 -10
-5 -10 -11z"/>
<path d="M2080 3844 c0 -8 5 -12 10 -9 6 4 8 11 5 16 -9 14 -15 11 -15 -7z"/>
<path d="M2283 3793 c9 -2 23 -2 30 0 6 3 -1 5 -18 5 -16 0 -22 -2 -12 -5z"/>
<path d="M2360 3790 c-8 -5 -12 -12 -9 -15 4 -3 12 1 19 10 14 17 11 19 -10 5z"/>
<path d="M2492 3785 c-11 -13 -10 -19 1 -36 12 -17 15 -17 20 -4 4 8 13 15 22
15 8 0 15 5 15 10 0 6 -5 10 -11 10 -5 0 -7 5 -4 10 10 16 -29 11 -43 -5z"/>
<path d="M2444 3754 c-10 -8 -13 -13 -6 -9 6 3 12 2 12 -3 0 -5 8 -12 18 -14
12 -3 19 0 19 9 0 8 -6 12 -15 8 -10 -3 -12 0 -8 10 7 19 4 19 -20 -1z"/>
<path d="M2271 3704 c0 -11 3 -14 6 -6 3 7 2 16 -1 19 -3 4 -6 -2 -5 -13z"/>
<path d="M2931 3504 c0 -11 3 -14 6 -6 3 7 2 16 -1 19 -3 4 -6 -2 -5 -13z"/>
<path d="M3108 3173 c7 -3 16 -2 19 1 4 3 -2 6 -13 5 -11 0 -14 -3 -6 -6z"/>
<path d="M3778 2143 c6 -2 18 -2 25 0 6 3 1 5 -13 5 -14 0 -19 -2 -12 -5z"/>
<path d="M3843 2118 c1 -6 -9 -15 -23 -19 -30 -8 -5 -11 27 -3 29 8 39 34 13
34 -11 0 -19 -5 -17 -12z"/>
<path d="M0 2065 c0 -8 4 -15 10 -15 5 0 7 7 4 15 -4 8 -8 15 -10 15 -2 0 -4
-7 -4 -15z"/>
<path d="M3789 1911 c5 -9 10 -22 13 -30 3 -11 7 -11 21 3 21 22 12 44 -18 44
-19 0 -23 -4 -16 -17z"/>
<path d="M3750 1861 c0 -11 5 -23 10 -26 6 -3 10 -1 10 4 0 6 3 10 8 10 4 -1
16 -1 27 0 16 1 17 3 6 10 -9 6 -22 6 -34 -1 -17 -9 -19 -8 -14 6 4 9 2 16 -3
16 -6 0 -10 -9 -10 -19z"/>
<path d="M3845 1850 c-3 -6 1 -7 9 -4 18 7 21 14 7 14 -6 0 -13 -4 -16 -10z"/>
<path d="M3780 1819 c0 -5 5 -7 10 -4 6 3 10 8 10 11 0 2 -4 4 -10 4 -5 0 -10
-5 -10 -11z"/>
<path d="M3976 1504 c-4 -10 -1 -14 6 -12 15 5 23 28 10 28 -5 0 -13 -7 -16
-16z"/>
</g>
</svg>
